<mxfile host="app.diagrams.net" modified="2024-04-05T08:39:45.852Z" agent="Mozilla/5.0 (Macintosh; Intel Mac OS X 10_15_7) AppleWebKit/537.36 (KHTML, like Gecko) Chrome/116.0.0.0 Safari/537.36" etag="FAX-wbY0CtlPUrhUaHAj" version="23.0.1" type="github">
  <diagram name="Page-1" id="rogjT2MHw67Xbn9DYFpR">
    <mxGraphModel dx="1768" dy="1190" grid="1" gridSize="10" guides="1" tooltips="1" connect="1" arrows="1" fold="1" page="1" pageScale="1" pageWidth="827" pageHeight="1169" math="0" shadow="0">
      <root>
        <mxCell id="0" />
        <mxCell id="1" parent="0" />
        <mxCell id="Sgbqpg-1kqw7CQK65REX-1" value="&lt;b&gt;FrontEnd Host&lt;/b&gt;" style="rounded=1;whiteSpace=wrap;html=1;fillColor=#d5e8d4;strokeColor=#82b366;" parent="1" vertex="1">
          <mxGeometry x="110" y="390" width="100" height="80" as="geometry" />
        </mxCell>
        <mxCell id="Sgbqpg-1kqw7CQK65REX-2" value="&lt;b&gt;Configuration Serivce (e.g. ZooKeeper)&lt;/b&gt;" style="rounded=1;whiteSpace=wrap;html=1;fillColor=#e1d5e7;strokeColor=#9673a6;" parent="1" vertex="1">
          <mxGeometry x="250" y="290" width="140" height="60" as="geometry" />
        </mxCell>
        <mxCell id="Sgbqpg-1kqw7CQK65REX-3" value="A-G" style="rounded=1;whiteSpace=wrap;html=1;fillColor=#dae8fc;strokeColor=#6c8ebf;" parent="1" vertex="1">
          <mxGeometry x="450" y="390" width="50" height="50" as="geometry" />
        </mxCell>
        <mxCell id="Sgbqpg-1kqw7CQK65REX-4" value="H-N" style="rounded=1;whiteSpace=wrap;html=1;fillColor=#dae8fc;strokeColor=#6c8ebf;" parent="1" vertex="1">
          <mxGeometry x="540" y="320" width="50" height="50" as="geometry" />
        </mxCell>
        <mxCell id="Sgbqpg-1kqw7CQK65REX-5" value="O-T" style="rounded=1;whiteSpace=wrap;html=1;fillColor=#dae8fc;strokeColor=#6c8ebf;" parent="1" vertex="1">
          <mxGeometry x="630" y="390" width="50" height="50" as="geometry" />
        </mxCell>
        <mxCell id="Sgbqpg-1kqw7CQK65REX-6" value="U-Z" style="rounded=1;whiteSpace=wrap;html=1;fillColor=#dae8fc;strokeColor=#6c8ebf;" parent="1" vertex="1">
          <mxGeometry x="540" y="460" width="50" height="50" as="geometry" />
        </mxCell>
        <mxCell id="Sgbqpg-1kqw7CQK65REX-7" value="" style="endArrow=none;dashed=1;html=1;dashPattern=1 3;strokeWidth=2;rounded=0;exitX=0.5;exitY=0;exitDx=0;exitDy=0;entryX=0;entryY=0.5;entryDx=0;entryDy=0;fillColor=#008a00;strokeColor=#005700;" parent="1" source="Sgbqpg-1kqw7CQK65REX-1" target="Sgbqpg-1kqw7CQK65REX-2" edge="1">
          <mxGeometry width="50" height="50" relative="1" as="geometry">
            <mxPoint x="530" y="700" as="sourcePoint" />
            <mxPoint x="580" y="650" as="targetPoint" />
            <Array as="points">
              <mxPoint x="180" y="340" />
            </Array>
          </mxGeometry>
        </mxCell>
        <mxCell id="Sgbqpg-1kqw7CQK65REX-8" value="" style="endArrow=none;dashed=1;html=1;rounded=0;exitX=1;exitY=0.5;exitDx=0;exitDy=0;entryX=0;entryY=0.5;entryDx=0;entryDy=0;fillColor=#6a00ff;strokeColor=#3700CC;" parent="1" source="Sgbqpg-1kqw7CQK65REX-2" target="Sgbqpg-1kqw7CQK65REX-4" edge="1">
          <mxGeometry width="50" height="50" relative="1" as="geometry">
            <mxPoint x="530" y="700" as="sourcePoint" />
            <mxPoint x="580" y="650" as="targetPoint" />
          </mxGeometry>
        </mxCell>
        <mxCell id="Sgbqpg-1kqw7CQK65REX-9" value="" style="endArrow=none;dashed=1;html=1;rounded=0;entryX=0;entryY=0.5;entryDx=0;entryDy=0;fillColor=#6a00ff;strokeColor=#3700CC;" parent="1" target="Sgbqpg-1kqw7CQK65REX-3" edge="1">
          <mxGeometry width="50" height="50" relative="1" as="geometry">
            <mxPoint x="390" y="320" as="sourcePoint" />
            <mxPoint x="550" y="355" as="targetPoint" />
          </mxGeometry>
        </mxCell>
        <mxCell id="Sgbqpg-1kqw7CQK65REX-10" value="" style="endArrow=none;dashed=1;html=1;rounded=0;exitX=1;exitY=0.5;exitDx=0;exitDy=0;entryX=0;entryY=0.5;entryDx=0;entryDy=0;fillColor=#6a00ff;strokeColor=#3700CC;" parent="1" source="Sgbqpg-1kqw7CQK65REX-2" target="Sgbqpg-1kqw7CQK65REX-5" edge="1">
          <mxGeometry width="50" height="50" relative="1" as="geometry">
            <mxPoint x="410" y="340" as="sourcePoint" />
            <mxPoint x="560" y="365" as="targetPoint" />
          </mxGeometry>
        </mxCell>
        <mxCell id="Sgbqpg-1kqw7CQK65REX-11" value="" style="endArrow=none;dashed=1;html=1;rounded=0;exitX=1;exitY=0.5;exitDx=0;exitDy=0;entryX=0.5;entryY=0;entryDx=0;entryDy=0;fillColor=#6a00ff;strokeColor=#3700CC;" parent="1" source="Sgbqpg-1kqw7CQK65REX-2" target="Sgbqpg-1kqw7CQK65REX-6" edge="1">
          <mxGeometry width="50" height="50" relative="1" as="geometry">
            <mxPoint x="420" y="350" as="sourcePoint" />
            <mxPoint x="570" y="375" as="targetPoint" />
          </mxGeometry>
        </mxCell>
        <mxCell id="Sgbqpg-1kqw7CQK65REX-12" value="" style="endArrow=none;html=1;rounded=0;exitX=0.5;exitY=0;exitDx=0;exitDy=0;entryX=0;entryY=0.5;entryDx=0;entryDy=0;fillColor=#1ba1e2;strokeColor=#006EAF;" parent="1" source="Sgbqpg-1kqw7CQK65REX-3" target="Sgbqpg-1kqw7CQK65REX-4" edge="1">
          <mxGeometry width="50" height="50" relative="1" as="geometry">
            <mxPoint x="530" y="700" as="sourcePoint" />
            <mxPoint x="580" y="650" as="targetPoint" />
          </mxGeometry>
        </mxCell>
        <mxCell id="Sgbqpg-1kqw7CQK65REX-14" value="" style="endArrow=none;html=1;rounded=0;exitX=1;exitY=0.5;exitDx=0;exitDy=0;entryX=0.5;entryY=0;entryDx=0;entryDy=0;fillColor=#1ba1e2;strokeColor=#006EAF;" parent="1" source="Sgbqpg-1kqw7CQK65REX-4" target="Sgbqpg-1kqw7CQK65REX-5" edge="1">
          <mxGeometry width="50" height="50" relative="1" as="geometry">
            <mxPoint x="530" y="700" as="sourcePoint" />
            <mxPoint x="580" y="650" as="targetPoint" />
          </mxGeometry>
        </mxCell>
        <mxCell id="Sgbqpg-1kqw7CQK65REX-15" value="" style="endArrow=none;html=1;rounded=0;exitX=1;exitY=0.5;exitDx=0;exitDy=0;entryX=0.5;entryY=1;entryDx=0;entryDy=0;fillColor=#1ba1e2;strokeColor=#006EAF;" parent="1" source="Sgbqpg-1kqw7CQK65REX-6" target="Sgbqpg-1kqw7CQK65REX-5" edge="1">
          <mxGeometry width="50" height="50" relative="1" as="geometry">
            <mxPoint x="600" y="355" as="sourcePoint" />
            <mxPoint x="665" y="400" as="targetPoint" />
          </mxGeometry>
        </mxCell>
        <mxCell id="Sgbqpg-1kqw7CQK65REX-16" value="" style="endArrow=none;html=1;rounded=0;exitX=0.5;exitY=1;exitDx=0;exitDy=0;entryX=0;entryY=0.5;entryDx=0;entryDy=0;fillColor=#1ba1e2;strokeColor=#006EAF;" parent="1" source="Sgbqpg-1kqw7CQK65REX-3" target="Sgbqpg-1kqw7CQK65REX-6" edge="1">
          <mxGeometry width="50" height="50" relative="1" as="geometry">
            <mxPoint x="610" y="365" as="sourcePoint" />
            <mxPoint x="675" y="410" as="targetPoint" />
          </mxGeometry>
        </mxCell>
        <mxCell id="Sgbqpg-1kqw7CQK65REX-17" value="" style="endArrow=none;dashed=1;html=1;dashPattern=1 3;strokeWidth=2;rounded=0;exitX=1;exitY=0.5;exitDx=0;exitDy=0;entryX=0;entryY=0.64;entryDx=0;entryDy=0;entryPerimeter=0;fillColor=#60a917;strokeColor=#2D7600;" parent="1" source="Sgbqpg-1kqw7CQK65REX-1" target="Sgbqpg-1kqw7CQK65REX-3" edge="1">
          <mxGeometry width="50" height="50" relative="1" as="geometry">
            <mxPoint x="530" y="700" as="sourcePoint" />
            <mxPoint x="580" y="650" as="targetPoint" />
          </mxGeometry>
        </mxCell>
        <mxCell id="Sgbqpg-1kqw7CQK65REX-18" value="&lt;b&gt;Central Registry&lt;/b&gt;" style="text;html=1;align=center;verticalAlign=middle;resizable=0;points=[];autosize=1;strokeColor=none;fillColor=none;" parent="1" vertex="1">
          <mxGeometry x="340" y="250" width="120" height="30" as="geometry" />
        </mxCell>
        <mxCell id="Sgbqpg-1kqw7CQK65REX-19" value="" style="rounded=1;whiteSpace=wrap;html=1;fillColor=#d5e8d4;strokeColor=#82b366;" parent="1" vertex="1">
          <mxGeometry x="120" y="760" width="120" height="80" as="geometry" />
        </mxCell>
        <mxCell id="Sgbqpg-1kqw7CQK65REX-20" value="" style="rounded=1;whiteSpace=wrap;html=1;fillColor=#dae8fc;strokeColor=#6c8ebf;" parent="1" vertex="1">
          <mxGeometry x="160" y="785" width="40" height="30" as="geometry" />
        </mxCell>
        <mxCell id="Sgbqpg-1kqw7CQK65REX-29" value="" style="group" parent="1" vertex="1" connectable="0">
          <mxGeometry x="460" y="705" width="230" height="190" as="geometry" />
        </mxCell>
        <mxCell id="Sgbqpg-1kqw7CQK65REX-21" value="H-N" style="rounded=1;whiteSpace=wrap;html=1;fillColor=#dae8fc;strokeColor=#6c8ebf;" parent="Sgbqpg-1kqw7CQK65REX-29" vertex="1">
          <mxGeometry x="90" width="50" height="50" as="geometry" />
        </mxCell>
        <mxCell id="Sgbqpg-1kqw7CQK65REX-22" value="O-T" style="rounded=1;whiteSpace=wrap;html=1;fillColor=#dae8fc;strokeColor=#6c8ebf;" parent="Sgbqpg-1kqw7CQK65REX-29" vertex="1">
          <mxGeometry x="180" y="70" width="50" height="50" as="geometry" />
        </mxCell>
        <mxCell id="Sgbqpg-1kqw7CQK65REX-23" value="U-Z" style="rounded=1;whiteSpace=wrap;html=1;fillColor=#dae8fc;strokeColor=#6c8ebf;" parent="Sgbqpg-1kqw7CQK65REX-29" vertex="1">
          <mxGeometry x="90" y="140" width="50" height="50" as="geometry" />
        </mxCell>
        <mxCell id="Sgbqpg-1kqw7CQK65REX-24" value="" style="endArrow=none;html=1;rounded=0;exitX=0.5;exitY=0;exitDx=0;exitDy=0;entryX=0;entryY=0.5;entryDx=0;entryDy=0;fillColor=#1ba1e2;strokeColor=#006EAF;" parent="Sgbqpg-1kqw7CQK65REX-29" target="Sgbqpg-1kqw7CQK65REX-21" edge="1">
          <mxGeometry width="50" height="50" relative="1" as="geometry">
            <mxPoint x="25" y="70" as="sourcePoint" />
            <mxPoint x="130" y="330" as="targetPoint" />
          </mxGeometry>
        </mxCell>
        <mxCell id="Sgbqpg-1kqw7CQK65REX-25" value="" style="endArrow=none;html=1;rounded=0;exitX=1;exitY=0.5;exitDx=0;exitDy=0;entryX=0.5;entryY=0;entryDx=0;entryDy=0;fillColor=#1ba1e2;strokeColor=#006EAF;" parent="Sgbqpg-1kqw7CQK65REX-29" source="Sgbqpg-1kqw7CQK65REX-21" target="Sgbqpg-1kqw7CQK65REX-22" edge="1">
          <mxGeometry width="50" height="50" relative="1" as="geometry">
            <mxPoint x="80" y="380" as="sourcePoint" />
            <mxPoint x="130" y="330" as="targetPoint" />
          </mxGeometry>
        </mxCell>
        <mxCell id="Sgbqpg-1kqw7CQK65REX-26" value="" style="endArrow=none;html=1;rounded=0;exitX=1;exitY=0.5;exitDx=0;exitDy=0;entryX=0.5;entryY=1;entryDx=0;entryDy=0;fillColor=#1ba1e2;strokeColor=#006EAF;" parent="Sgbqpg-1kqw7CQK65REX-29" source="Sgbqpg-1kqw7CQK65REX-23" target="Sgbqpg-1kqw7CQK65REX-22" edge="1">
          <mxGeometry width="50" height="50" relative="1" as="geometry">
            <mxPoint x="150" y="35" as="sourcePoint" />
            <mxPoint x="215" y="80" as="targetPoint" />
          </mxGeometry>
        </mxCell>
        <mxCell id="Sgbqpg-1kqw7CQK65REX-27" value="" style="endArrow=none;html=1;rounded=0;exitX=0.5;exitY=1;exitDx=0;exitDy=0;entryX=0;entryY=0.5;entryDx=0;entryDy=0;fillColor=#1ba1e2;strokeColor=#006EAF;" parent="Sgbqpg-1kqw7CQK65REX-29" target="Sgbqpg-1kqw7CQK65REX-23" edge="1">
          <mxGeometry width="50" height="50" relative="1" as="geometry">
            <mxPoint x="25" y="120" as="sourcePoint" />
            <mxPoint x="225" y="90" as="targetPoint" />
          </mxGeometry>
        </mxCell>
        <mxCell id="Sgbqpg-1kqw7CQK65REX-28" value="A-G" style="rounded=1;whiteSpace=wrap;html=1;fillColor=#dae8fc;strokeColor=#6c8ebf;" parent="Sgbqpg-1kqw7CQK65REX-29" vertex="1">
          <mxGeometry y="70" width="50" height="50" as="geometry" />
        </mxCell>
        <mxCell id="Sgbqpg-1kqw7CQK65REX-30" value="&lt;b&gt;FrontEnd Host&lt;/b&gt;" style="text;html=1;align=center;verticalAlign=middle;resizable=0;points=[];autosize=1;strokeColor=none;fillColor=none;" parent="1" vertex="1">
          <mxGeometry x="125" y="850" width="110" height="30" as="geometry" />
        </mxCell>
        <mxCell id="Sgbqpg-1kqw7CQK65REX-31" value="" style="endArrow=none;dashed=1;html=1;dashPattern=1 3;strokeWidth=2;rounded=0;exitX=1;exitY=0.5;exitDx=0;exitDy=0;entryX=0;entryY=0.5;entryDx=0;entryDy=0;fillColor=#60a917;strokeColor=#2D7600;" parent="1" source="Sgbqpg-1kqw7CQK65REX-20" target="Sgbqpg-1kqw7CQK65REX-21" edge="1">
          <mxGeometry width="50" height="50" relative="1" as="geometry">
            <mxPoint x="530" y="700" as="sourcePoint" />
            <mxPoint x="580" y="650" as="targetPoint" />
          </mxGeometry>
        </mxCell>
        <mxCell id="Sgbqpg-1kqw7CQK65REX-32" value="" style="endArrow=none;dashed=1;html=1;dashPattern=1 3;strokeWidth=2;rounded=0;exitX=1;exitY=0.5;exitDx=0;exitDy=0;entryX=0;entryY=0.5;entryDx=0;entryDy=0;fillColor=#60a917;strokeColor=#2D7600;" parent="1" source="Sgbqpg-1kqw7CQK65REX-20" target="Sgbqpg-1kqw7CQK65REX-28" edge="1">
          <mxGeometry width="50" height="50" relative="1" as="geometry">
            <mxPoint x="210" y="810" as="sourcePoint" />
            <mxPoint x="560" y="740" as="targetPoint" />
          </mxGeometry>
        </mxCell>
        <mxCell id="Sgbqpg-1kqw7CQK65REX-33" value="" style="endArrow=none;dashed=1;html=1;dashPattern=1 3;strokeWidth=2;rounded=0;exitX=1;exitY=0.5;exitDx=0;exitDy=0;entryX=0;entryY=0.5;entryDx=0;entryDy=0;fillColor=#60a917;strokeColor=#2D7600;" parent="1" source="Sgbqpg-1kqw7CQK65REX-20" target="Sgbqpg-1kqw7CQK65REX-23" edge="1">
          <mxGeometry width="50" height="50" relative="1" as="geometry">
            <mxPoint x="220" y="820" as="sourcePoint" />
            <mxPoint x="570" y="750" as="targetPoint" />
          </mxGeometry>
        </mxCell>
        <mxCell id="Sgbqpg-1kqw7CQK65REX-34" value="&lt;b&gt;Gossip Protocol&lt;/b&gt;&lt;br&gt;every FE knows all metadata hosts&amp;nbsp;" style="text;html=1;align=center;verticalAlign=middle;resizable=0;points=[];autosize=1;strokeColor=none;fillColor=none;" parent="1" vertex="1">
          <mxGeometry x="290" y="665" width="210" height="40" as="geometry" />
        </mxCell>
        <mxCell id="Sgbqpg-1kqw7CQK65REX-40" value="" style="edgeStyle=orthogonalEdgeStyle;rounded=0;orthogonalLoop=1;jettySize=auto;html=1;" parent="1" source="Sgbqpg-1kqw7CQK65REX-35" target="Sgbqpg-1kqw7CQK65REX-37" edge="1">
          <mxGeometry relative="1" as="geometry" />
        </mxCell>
        <mxCell id="Sgbqpg-1kqw7CQK65REX-35" value="" style="shape=actor;whiteSpace=wrap;html=1;fillColor=#ffe6cc;strokeColor=#d79b00;" parent="1" vertex="1">
          <mxGeometry x="130" y="1165" width="40" height="60" as="geometry" />
        </mxCell>
        <mxCell id="Sgbqpg-1kqw7CQK65REX-41" value="" style="edgeStyle=orthogonalEdgeStyle;rounded=0;orthogonalLoop=1;jettySize=auto;html=1;" parent="1" source="Sgbqpg-1kqw7CQK65REX-37" target="Sgbqpg-1kqw7CQK65REX-39" edge="1">
          <mxGeometry relative="1" as="geometry" />
        </mxCell>
        <mxCell id="Sgbqpg-1kqw7CQK65REX-37" value="Web Server" style="rounded=1;whiteSpace=wrap;html=1;fillColor=#d5e8d4;strokeColor=#82b366;" parent="1" vertex="1">
          <mxGeometry x="260" y="1120" width="210" height="150" as="geometry" />
        </mxCell>
        <mxCell id="Sgbqpg-1kqw7CQK65REX-38" value="Cache" style="shape=hexagon;perimeter=hexagonPerimeter2;whiteSpace=wrap;html=1;fixedSize=1;fillColor=#ffe6cc;strokeColor=#d79b00;" parent="1" vertex="1">
          <mxGeometry x="400" y="1210" width="60" height="50" as="geometry" />
        </mxCell>
        <mxCell id="Sgbqpg-1kqw7CQK65REX-39" value="DataStore" style="shape=cylinder3;whiteSpace=wrap;html=1;boundedLbl=1;backgroundOutline=1;size=15;fillColor=#dae8fc;strokeColor=#6c8ebf;" parent="1" vertex="1">
          <mxGeometry x="535" y="1155" width="60" height="80" as="geometry" />
        </mxCell>
        <mxCell id="Sgbqpg-1kqw7CQK65REX-42" value="&lt;b&gt;In-memory datastore, limited capacity&lt;/b&gt;" style="text;html=1;align=center;verticalAlign=middle;resizable=0;points=[];autosize=1;strokeColor=none;fillColor=none;" parent="1" vertex="1">
          <mxGeometry x="245" y="1078" width="240" height="30" as="geometry" />
        </mxCell>
        <mxCell id="Sgbqpg-1kqw7CQK65REX-52" value="" style="group" parent="1" vertex="1" connectable="0">
          <mxGeometry x="20" y="1468" width="280" height="275" as="geometry" />
        </mxCell>
        <mxCell id="Sgbqpg-1kqw7CQK65REX-43" value="GET" style="text;html=1;align=center;verticalAlign=middle;resizable=0;points=[];autosize=1;strokeColor=none;fillColor=none;" parent="Sgbqpg-1kqw7CQK65REX-52" vertex="1">
          <mxGeometry x="145" y="22" width="50" height="30" as="geometry" />
        </mxCell>
        <mxCell id="Sgbqpg-1kqw7CQK65REX-44" value="Is item in&lt;br&gt;cache?" style="rhombus;whiteSpace=wrap;html=1;" parent="Sgbqpg-1kqw7CQK65REX-52" vertex="1">
          <mxGeometry x="130" y="102" width="80" height="80" as="geometry" />
        </mxCell>
        <mxCell id="Sgbqpg-1kqw7CQK65REX-45" value="" style="edgeStyle=orthogonalEdgeStyle;rounded=0;orthogonalLoop=1;jettySize=auto;html=1;" parent="Sgbqpg-1kqw7CQK65REX-52" source="Sgbqpg-1kqw7CQK65REX-43" target="Sgbqpg-1kqw7CQK65REX-44" edge="1">
          <mxGeometry relative="1" as="geometry" />
        </mxCell>
        <mxCell id="Sgbqpg-1kqw7CQK65REX-46" value="&lt;b&gt;move item to list head return item&lt;br&gt;Preserve the order of use&lt;br&gt;&lt;/b&gt;" style="text;html=1;align=center;verticalAlign=middle;resizable=0;points=[];autosize=1;strokeColor=none;fillColor=none;" parent="Sgbqpg-1kqw7CQK65REX-52" vertex="1">
          <mxGeometry x="60" y="235" width="220" height="40" as="geometry" />
        </mxCell>
        <mxCell id="Sgbqpg-1kqw7CQK65REX-47" value="" style="edgeStyle=orthogonalEdgeStyle;rounded=0;orthogonalLoop=1;jettySize=auto;html=1;" parent="Sgbqpg-1kqw7CQK65REX-52" source="Sgbqpg-1kqw7CQK65REX-44" target="Sgbqpg-1kqw7CQK65REX-46" edge="1">
          <mxGeometry relative="1" as="geometry" />
        </mxCell>
        <mxCell id="Sgbqpg-1kqw7CQK65REX-48" value="&lt;b&gt;YES&lt;/b&gt;" style="edgeLabel;html=1;align=center;verticalAlign=middle;resizable=0;points=[];" parent="Sgbqpg-1kqw7CQK65REX-47" vertex="1" connectable="0">
          <mxGeometry x="-0.3103" relative="1" as="geometry">
            <mxPoint as="offset" />
          </mxGeometry>
        </mxCell>
        <mxCell id="Sgbqpg-1kqw7CQK65REX-49" value="&lt;b&gt;return null&lt;/b&gt;" style="text;html=1;align=center;verticalAlign=middle;resizable=0;points=[];autosize=1;strokeColor=none;fillColor=none;" parent="Sgbqpg-1kqw7CQK65REX-52" vertex="1">
          <mxGeometry y="127" width="80" height="30" as="geometry" />
        </mxCell>
        <mxCell id="Sgbqpg-1kqw7CQK65REX-51" value="" style="edgeStyle=orthogonalEdgeStyle;rounded=0;orthogonalLoop=1;jettySize=auto;html=1;" parent="Sgbqpg-1kqw7CQK65REX-52" source="Sgbqpg-1kqw7CQK65REX-44" target="Sgbqpg-1kqw7CQK65REX-49" edge="1">
          <mxGeometry relative="1" as="geometry" />
        </mxCell>
        <mxCell id="Sgbqpg-1kqw7CQK65REX-68" value="" style="group" parent="1" vertex="1" connectable="0">
          <mxGeometry x="297.5" y="1490" width="535" height="277" as="geometry" />
        </mxCell>
        <mxCell id="Sgbqpg-1kqw7CQK65REX-56" value="&lt;b&gt;Update the value&lt;br&gt;Move the item to the list head&lt;/b&gt;" style="text;html=1;align=center;verticalAlign=middle;resizable=0;points=[];autosize=1;strokeColor=none;fillColor=none;" parent="Sgbqpg-1kqw7CQK65REX-68" vertex="1">
          <mxGeometry y="222" width="190" height="40" as="geometry" />
        </mxCell>
        <mxCell id="Sgbqpg-1kqw7CQK65REX-69" value="" style="group" parent="Sgbqpg-1kqw7CQK65REX-68" vertex="1" connectable="0">
          <mxGeometry x="55" width="480" height="277" as="geometry" />
        </mxCell>
        <mxCell id="Sgbqpg-1kqw7CQK65REX-53" value="PUT" style="text;html=1;align=center;verticalAlign=middle;resizable=0;points=[];autosize=1;strokeColor=none;fillColor=none;" parent="Sgbqpg-1kqw7CQK65REX-69" vertex="1">
          <mxGeometry x="15" width="50" height="30" as="geometry" />
        </mxCell>
        <mxCell id="Sgbqpg-1kqw7CQK65REX-54" value="Is item in&lt;br&gt;cache?" style="rhombus;whiteSpace=wrap;html=1;" parent="Sgbqpg-1kqw7CQK65REX-69" vertex="1">
          <mxGeometry y="82" width="80" height="80" as="geometry" />
        </mxCell>
        <mxCell id="Sgbqpg-1kqw7CQK65REX-55" value="" style="edgeStyle=orthogonalEdgeStyle;rounded=0;orthogonalLoop=1;jettySize=auto;html=1;" parent="Sgbqpg-1kqw7CQK65REX-69" source="Sgbqpg-1kqw7CQK65REX-53" target="Sgbqpg-1kqw7CQK65REX-54" edge="1">
          <mxGeometry relative="1" as="geometry" />
        </mxCell>
        <mxCell id="Sgbqpg-1kqw7CQK65REX-57" value="" style="edgeStyle=orthogonalEdgeStyle;rounded=0;orthogonalLoop=1;jettySize=auto;html=1;" parent="Sgbqpg-1kqw7CQK65REX-69" source="Sgbqpg-1kqw7CQK65REX-54" target="Sgbqpg-1kqw7CQK65REX-56" edge="1">
          <mxGeometry relative="1" as="geometry" />
        </mxCell>
        <mxCell id="Sgbqpg-1kqw7CQK65REX-61" value="&lt;b&gt;YES&lt;/b&gt;" style="edgeLabel;html=1;align=center;verticalAlign=middle;resizable=0;points=[];" parent="Sgbqpg-1kqw7CQK65REX-57" vertex="1" connectable="0">
          <mxGeometry x="-0.2333" y="-2" relative="1" as="geometry">
            <mxPoint as="offset" />
          </mxGeometry>
        </mxCell>
        <mxCell id="Sgbqpg-1kqw7CQK65REX-59" value="Is cache&lt;br&gt;full?" style="rhombus;whiteSpace=wrap;html=1;" parent="Sgbqpg-1kqw7CQK65REX-69" vertex="1">
          <mxGeometry x="263" y="82" width="80" height="80" as="geometry" />
        </mxCell>
        <mxCell id="Sgbqpg-1kqw7CQK65REX-60" value="" style="edgeStyle=orthogonalEdgeStyle;rounded=0;orthogonalLoop=1;jettySize=auto;html=1;" parent="Sgbqpg-1kqw7CQK65REX-69" source="Sgbqpg-1kqw7CQK65REX-54" target="Sgbqpg-1kqw7CQK65REX-59" edge="1">
          <mxGeometry relative="1" as="geometry" />
        </mxCell>
        <mxCell id="Sgbqpg-1kqw7CQK65REX-62" value="&lt;b&gt;NO&lt;/b&gt;" style="edgeLabel;html=1;align=center;verticalAlign=middle;resizable=0;points=[];" parent="Sgbqpg-1kqw7CQK65REX-60" vertex="1" connectable="0">
          <mxGeometry x="-0.1455" y="1" relative="1" as="geometry">
            <mxPoint as="offset" />
          </mxGeometry>
        </mxCell>
        <mxCell id="Sgbqpg-1kqw7CQK65REX-63" value="&lt;b&gt;Remove LRU from both the list and Hash Table&lt;br&gt;Add new item to the list head and Hash Table&lt;br&gt;&lt;/b&gt;" style="text;html=1;align=center;verticalAlign=middle;resizable=0;points=[];autosize=1;strokeColor=none;fillColor=none;" parent="Sgbqpg-1kqw7CQK65REX-69" vertex="1">
          <mxGeometry x="157.5" y="222" width="290" height="40" as="geometry" />
        </mxCell>
        <mxCell id="Sgbqpg-1kqw7CQK65REX-64" value="" style="edgeStyle=orthogonalEdgeStyle;rounded=0;orthogonalLoop=1;jettySize=auto;html=1;" parent="Sgbqpg-1kqw7CQK65REX-69" source="Sgbqpg-1kqw7CQK65REX-59" target="Sgbqpg-1kqw7CQK65REX-63" edge="1">
          <mxGeometry relative="1" as="geometry" />
        </mxCell>
        <mxCell id="Sgbqpg-1kqw7CQK65REX-65" value="&lt;b&gt;Add new item to both the&lt;br&gt;Hash Table and the list head&lt;br&gt;&lt;/b&gt;" style="text;html=1;align=center;verticalAlign=middle;resizable=0;points=[];autosize=1;strokeColor=none;fillColor=none;" parent="1" vertex="1">
          <mxGeometry x="780" y="1592" width="180" height="40" as="geometry" />
        </mxCell>
        <mxCell id="Sgbqpg-1kqw7CQK65REX-67" value="" style="edgeStyle=orthogonalEdgeStyle;rounded=0;orthogonalLoop=1;jettySize=auto;html=1;" parent="1" source="Sgbqpg-1kqw7CQK65REX-59" target="Sgbqpg-1kqw7CQK65REX-65" edge="1">
          <mxGeometry relative="1" as="geometry" />
        </mxCell>
        <mxCell id="Sgbqpg-1kqw7CQK65REX-72" value="" style="group" parent="1" vertex="1" connectable="0">
          <mxGeometry x="100" y="1790" width="160" height="150" as="geometry" />
        </mxCell>
        <mxCell id="Sgbqpg-1kqw7CQK65REX-70" value="Service Host A" style="rounded=1;whiteSpace=wrap;html=1;fillColor=#d5e8d4;strokeColor=#82b366;" parent="Sgbqpg-1kqw7CQK65REX-72" vertex="1">
          <mxGeometry width="160" height="150" as="geometry" />
        </mxCell>
        <mxCell id="Sgbqpg-1kqw7CQK65REX-71" value="LRU Cache" style="shape=hexagon;perimeter=hexagonPerimeter2;whiteSpace=wrap;html=1;fixedSize=1;fillColor=#ffe6cc;strokeColor=#d79b00;" parent="Sgbqpg-1kqw7CQK65REX-72" vertex="1">
          <mxGeometry x="90" y="90" width="60" height="50" as="geometry" />
        </mxCell>
        <mxCell id="Sgbqpg-1kqw7CQK65REX-74" value="" style="group" parent="1" vertex="1" connectable="0">
          <mxGeometry x="400" y="1790" width="160" height="150" as="geometry" />
        </mxCell>
        <mxCell id="Sgbqpg-1kqw7CQK65REX-75" value="Service Host B" style="rounded=1;whiteSpace=wrap;html=1;fillColor=#d5e8d4;strokeColor=#82b366;" parent="Sgbqpg-1kqw7CQK65REX-74" vertex="1">
          <mxGeometry width="160" height="150" as="geometry" />
        </mxCell>
        <mxCell id="Sgbqpg-1kqw7CQK65REX-76" value="LRU Cache" style="shape=hexagon;perimeter=hexagonPerimeter2;whiteSpace=wrap;html=1;fixedSize=1;fillColor=#ffe6cc;strokeColor=#d79b00;" parent="Sgbqpg-1kqw7CQK65REX-74" vertex="1">
          <mxGeometry x="90" y="90" width="60" height="50" as="geometry" />
        </mxCell>
        <mxCell id="Sgbqpg-1kqw7CQK65REX-77" value="" style="rounded=1;whiteSpace=wrap;html=1;" parent="1" vertex="1">
          <mxGeometry x="100" y="2010" width="170" height="80" as="geometry" />
        </mxCell>
        <mxCell id="Sgbqpg-1kqw7CQK65REX-78" value="LRU Cache" style="shape=hexagon;perimeter=hexagonPerimeter2;whiteSpace=wrap;html=1;fixedSize=1;fillColor=#ffe6cc;strokeColor=#d79b00;" parent="1" vertex="1">
          <mxGeometry x="155" y="2025" width="60" height="50" as="geometry" />
        </mxCell>
        <mxCell id="Sgbqpg-1kqw7CQK65REX-79" value="&lt;b&gt;Cache Host A&lt;/b&gt;" style="text;html=1;align=center;verticalAlign=middle;resizable=0;points=[];autosize=1;strokeColor=none;fillColor=none;" parent="1" vertex="1">
          <mxGeometry x="130" y="1980" width="100" height="30" as="geometry" />
        </mxCell>
        <mxCell id="Sgbqpg-1kqw7CQK65REX-80" value="" style="rounded=1;whiteSpace=wrap;html=1;" parent="1" vertex="1">
          <mxGeometry x="395" y="2010" width="170" height="80" as="geometry" />
        </mxCell>
        <mxCell id="Sgbqpg-1kqw7CQK65REX-81" value="LRU Cache" style="shape=hexagon;perimeter=hexagonPerimeter2;whiteSpace=wrap;html=1;fixedSize=1;fillColor=#ffe6cc;strokeColor=#d79b00;" parent="1" vertex="1">
          <mxGeometry x="450" y="2025" width="60" height="50" as="geometry" />
        </mxCell>
        <mxCell id="Sgbqpg-1kqw7CQK65REX-82" value="&lt;b&gt;Cache Host B&lt;/b&gt;" style="text;html=1;align=center;verticalAlign=middle;resizable=0;points=[];autosize=1;strokeColor=none;fillColor=none;" parent="1" vertex="1">
          <mxGeometry x="435" y="1980" width="100" height="30" as="geometry" />
        </mxCell>
        <mxCell id="Sgbqpg-1kqw7CQK65REX-83" value="&lt;font color=&quot;#ff0000&quot;&gt;&lt;b&gt;A - M&lt;/b&gt;&lt;/font&gt;" style="text;html=1;align=center;verticalAlign=middle;resizable=0;points=[];autosize=1;strokeColor=none;fillColor=none;" parent="1" vertex="1">
          <mxGeometry x="155" y="2090" width="50" height="30" as="geometry" />
        </mxCell>
        <mxCell id="Sgbqpg-1kqw7CQK65REX-84" value="&lt;b&gt;&lt;font color=&quot;#ff0000&quot;&gt;N - Z&lt;/font&gt;&lt;/b&gt;" style="text;html=1;align=center;verticalAlign=middle;resizable=0;points=[];autosize=1;strokeColor=none;fillColor=none;" parent="1" vertex="1">
          <mxGeometry x="455" y="2090" width="50" height="30" as="geometry" />
        </mxCell>
        <mxCell id="Sgbqpg-1kqw7CQK65REX-85" value="" style="endArrow=none;dashed=1;html=1;dashPattern=1 3;strokeWidth=3;rounded=0;exitX=0.956;exitY=0.953;exitDx=0;exitDy=0;exitPerimeter=0;entryX=0;entryY=0;entryDx=0;entryDy=0;fillColor=#f0a30a;strokeColor=#BD7000;" parent="1" source="Sgbqpg-1kqw7CQK65REX-70" target="Sgbqpg-1kqw7CQK65REX-80" edge="1">
          <mxGeometry width="50" height="50" relative="1" as="geometry">
            <mxPoint x="530" y="1790" as="sourcePoint" />
            <mxPoint x="580" y="1740" as="targetPoint" />
          </mxGeometry>
        </mxCell>
        <mxCell id="Sgbqpg-1kqw7CQK65REX-86" value="" style="endArrow=none;dashed=1;html=1;dashPattern=1 3;strokeWidth=3;rounded=0;exitX=0.46;exitY=0.033;exitDx=0;exitDy=0;exitPerimeter=0;entryX=0.5;entryY=1;entryDx=0;entryDy=0;fillColor=#f0a30a;strokeColor=#BD7000;" parent="1" source="Sgbqpg-1kqw7CQK65REX-82" target="Sgbqpg-1kqw7CQK65REX-75" edge="1">
          <mxGeometry width="50" height="50" relative="1" as="geometry">
            <mxPoint x="263" y="1943" as="sourcePoint" />
            <mxPoint x="405" y="2020" as="targetPoint" />
          </mxGeometry>
        </mxCell>
        <mxCell id="Sgbqpg-1kqw7CQK65REX-92" value="" style="group" parent="1" vertex="1" connectable="0">
          <mxGeometry x="120" y="2218" width="150" height="232" as="geometry" />
        </mxCell>
        <mxCell id="Sgbqpg-1kqw7CQK65REX-87" value="" style="rounded=1;whiteSpace=wrap;html=1;" parent="Sgbqpg-1kqw7CQK65REX-92" vertex="1">
          <mxGeometry y="32" width="150" height="200" as="geometry" />
        </mxCell>
        <mxCell id="Sgbqpg-1kqw7CQK65REX-88" value="&lt;b&gt;Service Node&lt;/b&gt;" style="rounded=1;whiteSpace=wrap;html=1;fillColor=#d5e8d4;strokeColor=#82b366;" parent="Sgbqpg-1kqw7CQK65REX-92" vertex="1">
          <mxGeometry x="15" y="52" width="120" height="60" as="geometry" />
        </mxCell>
        <mxCell id="Sgbqpg-1kqw7CQK65REX-89" value="&lt;b&gt;Service Host A&lt;/b&gt;" style="text;html=1;align=center;verticalAlign=middle;resizable=0;points=[];autosize=1;strokeColor=none;fillColor=none;" parent="Sgbqpg-1kqw7CQK65REX-92" vertex="1">
          <mxGeometry x="15" width="110" height="30" as="geometry" />
        </mxCell>
        <mxCell id="Sgbqpg-1kqw7CQK65REX-90" value="LRU Cache" style="shape=hexagon;perimeter=hexagonPerimeter2;whiteSpace=wrap;html=1;fixedSize=1;fillColor=#ffe6cc;strokeColor=#d79b00;" parent="Sgbqpg-1kqw7CQK65REX-92" vertex="1">
          <mxGeometry x="45" y="142" width="60" height="50" as="geometry" />
        </mxCell>
        <mxCell id="Sgbqpg-1kqw7CQK65REX-91" value="&lt;b&gt;&lt;font color=&quot;#ff0000&quot;&gt;A - M&lt;/font&gt;&lt;/b&gt;" style="text;html=1;align=center;verticalAlign=middle;resizable=0;points=[];autosize=1;strokeColor=none;fillColor=none;" parent="Sgbqpg-1kqw7CQK65REX-92" vertex="1">
          <mxGeometry x="50" y="192" width="50" height="30" as="geometry" />
        </mxCell>
        <mxCell id="Sgbqpg-1kqw7CQK65REX-93" value="" style="group" parent="1" vertex="1" connectable="0">
          <mxGeometry x="414" y="2220" width="150" height="232" as="geometry" />
        </mxCell>
        <mxCell id="Sgbqpg-1kqw7CQK65REX-94" value="" style="rounded=1;whiteSpace=wrap;html=1;" parent="Sgbqpg-1kqw7CQK65REX-93" vertex="1">
          <mxGeometry y="32" width="150" height="200" as="geometry" />
        </mxCell>
        <mxCell id="Sgbqpg-1kqw7CQK65REX-95" value="&lt;b&gt;Service Node&lt;/b&gt;" style="rounded=1;whiteSpace=wrap;html=1;fillColor=#d5e8d4;strokeColor=#82b366;" parent="Sgbqpg-1kqw7CQK65REX-93" vertex="1">
          <mxGeometry x="15" y="52" width="120" height="60" as="geometry" />
        </mxCell>
        <mxCell id="Sgbqpg-1kqw7CQK65REX-96" value="&lt;b&gt;Service Host B&lt;/b&gt;" style="text;html=1;align=center;verticalAlign=middle;resizable=0;points=[];autosize=1;strokeColor=none;fillColor=none;" parent="Sgbqpg-1kqw7CQK65REX-93" vertex="1">
          <mxGeometry x="15" width="110" height="30" as="geometry" />
        </mxCell>
        <mxCell id="Sgbqpg-1kqw7CQK65REX-97" value="LRU Cache" style="shape=hexagon;perimeter=hexagonPerimeter2;whiteSpace=wrap;html=1;fixedSize=1;fillColor=#ffe6cc;strokeColor=#d79b00;" parent="Sgbqpg-1kqw7CQK65REX-93" vertex="1">
          <mxGeometry x="45" y="142" width="60" height="50" as="geometry" />
        </mxCell>
        <mxCell id="Sgbqpg-1kqw7CQK65REX-98" value="&lt;b&gt;&lt;font color=&quot;#ff0000&quot;&gt;N - Z&lt;/font&gt;&lt;/b&gt;" style="text;html=1;align=center;verticalAlign=middle;resizable=0;points=[];autosize=1;strokeColor=none;fillColor=none;" parent="Sgbqpg-1kqw7CQK65REX-93" vertex="1">
          <mxGeometry x="50" y="192" width="50" height="30" as="geometry" />
        </mxCell>
        <mxCell id="Sgbqpg-1kqw7CQK65REX-99" value="&lt;b&gt;Co-located Cache&lt;/b&gt;" style="text;html=1;align=center;verticalAlign=middle;resizable=0;points=[];autosize=1;strokeColor=none;fillColor=none;" parent="1" vertex="1">
          <mxGeometry x="275" y="2200" width="120" height="30" as="geometry" />
        </mxCell>
        <mxCell id="Sgbqpg-1kqw7CQK65REX-100" value="&lt;b&gt;Distribute Cache&lt;br&gt;Cluster&lt;/b&gt;" style="text;html=1;align=center;verticalAlign=middle;resizable=0;points=[];autosize=1;strokeColor=none;fillColor=none;" parent="1" vertex="1">
          <mxGeometry x="270" y="2025" width="120" height="40" as="geometry" />
        </mxCell>
        <mxCell id="Sgbqpg-1kqw7CQK65REX-101" value="Service" style="rounded=1;whiteSpace=wrap;html=1;fillColor=#d5e8d4;strokeColor=#82b366;" parent="1" vertex="1">
          <mxGeometry x="205" y="2560" width="175" height="160" as="geometry" />
        </mxCell>
        <mxCell id="Sgbqpg-1kqw7CQK65REX-102" value="Cache client" style="rounded=0;whiteSpace=wrap;html=1;fillColor=#dae8fc;strokeColor=#6c8ebf;" parent="1" vertex="1">
          <mxGeometry x="280" y="2650" width="100" height="50" as="geometry" />
        </mxCell>
        <mxCell id="Sgbqpg-1kqw7CQK65REX-104" value="Cache Server 1" style="shape=hexagon;perimeter=hexagonPerimeter2;whiteSpace=wrap;html=1;fixedSize=1;fillColor=#ffe6cc;strokeColor=#d79b00;" parent="1" vertex="1">
          <mxGeometry x="470" y="2510" width="120" height="80" as="geometry" />
        </mxCell>
        <mxCell id="Sgbqpg-1kqw7CQK65REX-105" value="Cache Server 2" style="shape=hexagon;perimeter=hexagonPerimeter2;whiteSpace=wrap;html=1;fixedSize=1;fillColor=#ffe6cc;strokeColor=#d79b00;" parent="1" vertex="1">
          <mxGeometry x="470" y="2600" width="120" height="80" as="geometry" />
        </mxCell>
        <mxCell id="Sgbqpg-1kqw7CQK65REX-106" value="Cache Server 3" style="shape=hexagon;perimeter=hexagonPerimeter2;whiteSpace=wrap;html=1;fixedSize=1;fillColor=#ffe6cc;strokeColor=#d79b00;" parent="1" vertex="1">
          <mxGeometry x="470" y="2690" width="120" height="80" as="geometry" />
        </mxCell>
        <mxCell id="Sgbqpg-1kqw7CQK65REX-108" value="" style="edgeStyle=orthogonalEdgeStyle;rounded=0;orthogonalLoop=1;jettySize=auto;html=1;" parent="1" source="Sgbqpg-1kqw7CQK65REX-107" target="Sgbqpg-1kqw7CQK65REX-101" edge="1">
          <mxGeometry relative="1" as="geometry" />
        </mxCell>
        <mxCell id="Sgbqpg-1kqw7CQK65REX-107" value="" style="shape=actor;whiteSpace=wrap;html=1;fillColor=#fff2cc;strokeColor=#d6b656;" parent="1" vertex="1">
          <mxGeometry x="80" y="2610" width="40" height="60" as="geometry" />
        </mxCell>
        <mxCell id="Sgbqpg-1kqw7CQK65REX-109" value="" style="endArrow=none;dashed=1;html=1;dashPattern=1 3;strokeWidth=3;rounded=0;exitX=1;exitY=0.5;exitDx=0;exitDy=0;entryX=0;entryY=0.5;entryDx=0;entryDy=0;fillColor=#60a917;strokeColor=#2D7600;" parent="1" source="Sgbqpg-1kqw7CQK65REX-102" target="Sgbqpg-1kqw7CQK65REX-104" edge="1">
          <mxGeometry width="50" height="50" relative="1" as="geometry">
            <mxPoint x="530" y="2420" as="sourcePoint" />
            <mxPoint x="580" y="2370" as="targetPoint" />
          </mxGeometry>
        </mxCell>
        <mxCell id="Sgbqpg-1kqw7CQK65REX-110" value="" style="endArrow=none;dashed=1;html=1;dashPattern=1 3;strokeWidth=3;rounded=0;exitX=1;exitY=0.5;exitDx=0;exitDy=0;entryX=0;entryY=0.5;entryDx=0;entryDy=0;fillColor=#60a917;strokeColor=#2D7600;" parent="1" source="Sgbqpg-1kqw7CQK65REX-102" target="Sgbqpg-1kqw7CQK65REX-105" edge="1">
          <mxGeometry width="50" height="50" relative="1" as="geometry">
            <mxPoint x="390" y="2685" as="sourcePoint" />
            <mxPoint x="480" y="2560" as="targetPoint" />
          </mxGeometry>
        </mxCell>
        <mxCell id="Sgbqpg-1kqw7CQK65REX-111" value="" style="endArrow=none;dashed=1;html=1;dashPattern=1 3;strokeWidth=3;rounded=0;entryX=0;entryY=0.5;entryDx=0;entryDy=0;fillColor=#60a917;strokeColor=#2D7600;" parent="1" target="Sgbqpg-1kqw7CQK65REX-106" edge="1">
          <mxGeometry width="50" height="50" relative="1" as="geometry">
            <mxPoint x="380" y="2680" as="sourcePoint" />
            <mxPoint x="490" y="2570" as="targetPoint" />
          </mxGeometry>
        </mxCell>
        <mxCell id="z0TcVL0wsRm-TSr1wqo3-23" value="&lt;sub&gt;56t0&amp;nbsp; v&lt;br&gt;&lt;/sub&gt;" style="edgeStyle=none;orthogonalLoop=1;jettySize=auto;html=1;rounded=0;" edge="1" parent="1">
          <mxGeometry width="80" relative="1" as="geometry">
            <mxPoint x="800" y="470" as="sourcePoint" />
            <mxPoint x="880" y="470" as="targetPoint" />
            <Array as="points" />
          </mxGeometry>
        </mxCell>
        <mxCell id="z0TcVL0wsRm-TSr1wqo3-24" value="" style="shape=link;html=1;rounded=0;" edge="1" parent="1">
          <mxGeometry width="100" relative="1" as="geometry">
            <mxPoint x="750" y="1730" as="sourcePoint" />
            <mxPoint x="850" y="1730" as="targetPoint" />
          </mxGeometry>
        </mxCell>
        <mxCell id="z0TcVL0wsRm-TSr1wqo3-25" value="000" style="edgeStyle=none;orthogonalLoop=1;jettySize=auto;html=1;rounded=0;" edge="1" parent="1">
          <mxGeometry width="80" relative="1" as="geometry">
            <mxPoint x="1446" y="1481" as="sourcePoint" />
            <mxPoint x="1526" y="1481" as="targetPoint" />
            <Array as="points" />
          </mxGeometry>
        </mxCell>
        <mxCell id="z0TcVL0wsRm-TSr1wqo3-26" value="" style="shape=link;html=1;rounded=0;" edge="1" parent="1">
          <mxGeometry width="100" relative="1" as="geometry">
            <mxPoint x="750" y="1730" as="sourcePoint" />
            <mxPoint x="850" y="1730" as="targetPoint" />
          </mxGeometry>
        </mxCell>
      </root>
    </mxGraphModel>
  </diagram>
</mxfile>
